<mxfile host="app.diagrams.net" modified="2020-11-05T02:52:07.645Z" agent="5.0 (Macintosh; Intel Mac OS X 10_15_4) AppleWebKit/537.36 (KHTML, like Gecko) Chrome/86.0.4240.111 Safari/537.36" etag="FQ2l-XGwvpXQDkd8TMKd" version="13.9.1" type="github">
  <diagram id="C5RBs43oDa-KdzZeNtuy" name="Page-1">
    <mxGraphModel dx="746" dy="953" grid="1" gridSize="10" guides="1" tooltips="1" connect="1" arrows="1" fold="1" page="1" pageScale="1" pageWidth="827" pageHeight="1169" math="0" shadow="0">
      <root>
        <mxCell id="WIyWlLk6GJQsqaUBKTNV-0" />
        <mxCell id="WIyWlLk6GJQsqaUBKTNV-1" parent="WIyWlLk6GJQsqaUBKTNV-0" />
        <mxCell id="ECa8pZ-hQYxJINhSoIsZ-0" value="basic_info" style="shape=cylinder3;whiteSpace=wrap;html=1;boundedLbl=1;backgroundOutline=1;size=15;" vertex="1" parent="WIyWlLk6GJQsqaUBKTNV-1">
          <mxGeometry x="280" y="570" width="80" height="70" as="geometry" />
        </mxCell>
        <mxCell id="ECa8pZ-hQYxJINhSoIsZ-2" style="edgeStyle=orthogonalEdgeStyle;rounded=0;orthogonalLoop=1;jettySize=auto;html=1;exitX=0.5;exitY=1;exitDx=0;exitDy=0;" edge="1" parent="WIyWlLk6GJQsqaUBKTNV-1" source="ECa8pZ-hQYxJINhSoIsZ-1" target="ECa8pZ-hQYxJINhSoIsZ-0">
          <mxGeometry relative="1" as="geometry" />
        </mxCell>
        <mxCell id="ECa8pZ-hQYxJINhSoIsZ-3" value="写DB" style="edgeLabel;html=1;align=center;verticalAlign=middle;resizable=0;points=[];" vertex="1" connectable="0" parent="ECa8pZ-hQYxJINhSoIsZ-2">
          <mxGeometry x="-0.28" y="-1" relative="1" as="geometry">
            <mxPoint as="offset" />
          </mxGeometry>
        </mxCell>
        <mxCell id="ECa8pZ-hQYxJINhSoIsZ-1" value="data_group_to_db&lt;br&gt;写DB服务" style="rounded=0;whiteSpace=wrap;html=1;" vertex="1" parent="WIyWlLk6GJQsqaUBKTNV-1">
          <mxGeometry x="220" y="430" width="200" height="60" as="geometry" />
        </mxCell>
        <mxCell id="ECa8pZ-hQYxJINhSoIsZ-15" style="edgeStyle=orthogonalEdgeStyle;curved=1;rounded=0;orthogonalLoop=1;jettySize=auto;html=1;exitX=0.5;exitY=1;exitDx=0;exitDy=0;exitPerimeter=0;entryX=0.25;entryY=0;entryDx=0;entryDy=0;" edge="1" parent="WIyWlLk6GJQsqaUBKTNV-1" source="ECa8pZ-hQYxJINhSoIsZ-4" target="ECa8pZ-hQYxJINhSoIsZ-11">
          <mxGeometry relative="1" as="geometry" />
        </mxCell>
        <mxCell id="ECa8pZ-hQYxJINhSoIsZ-4" value="app_release&lt;br&gt;解封账号" style="shape=cylinder3;whiteSpace=wrap;html=1;boundedLbl=1;backgroundOutline=1;size=15;" vertex="1" parent="WIyWlLk6GJQsqaUBKTNV-1">
          <mxGeometry x="230" y="150" width="80" height="70" as="geometry" />
        </mxCell>
        <mxCell id="ECa8pZ-hQYxJINhSoIsZ-16" style="edgeStyle=orthogonalEdgeStyle;curved=1;rounded=0;orthogonalLoop=1;jettySize=auto;html=1;exitX=0.5;exitY=1;exitDx=0;exitDy=0;exitPerimeter=0;entryX=0.75;entryY=0;entryDx=0;entryDy=0;" edge="1" parent="WIyWlLk6GJQsqaUBKTNV-1" source="ECa8pZ-hQYxJINhSoIsZ-5" target="ECa8pZ-hQYxJINhSoIsZ-11">
          <mxGeometry relative="1" as="geometry" />
        </mxCell>
        <mxCell id="ECa8pZ-hQYxJINhSoIsZ-5" value="app_block&lt;br&gt;封禁账号" style="shape=cylinder3;whiteSpace=wrap;html=1;boundedLbl=1;backgroundOutline=1;size=15;" vertex="1" parent="WIyWlLk6GJQsqaUBKTNV-1">
          <mxGeometry x="330" y="150" width="80" height="70" as="geometry" />
        </mxCell>
        <mxCell id="ECa8pZ-hQYxJINhSoIsZ-13" style="edgeStyle=orthogonalEdgeStyle;curved=1;rounded=0;orthogonalLoop=1;jettySize=auto;html=1;exitX=0.25;exitY=1;exitDx=0;exitDy=0;" edge="1" parent="WIyWlLk6GJQsqaUBKTNV-1" source="ECa8pZ-hQYxJINhSoIsZ-6" target="ECa8pZ-hQYxJINhSoIsZ-4">
          <mxGeometry relative="1" as="geometry" />
        </mxCell>
        <mxCell id="ECa8pZ-hQYxJINhSoIsZ-14" style="edgeStyle=orthogonalEdgeStyle;curved=1;rounded=0;orthogonalLoop=1;jettySize=auto;html=1;exitX=0.75;exitY=1;exitDx=0;exitDy=0;entryX=0.5;entryY=0;entryDx=0;entryDy=0;entryPerimeter=0;" edge="1" parent="WIyWlLk6GJQsqaUBKTNV-1" source="ECa8pZ-hQYxJINhSoIsZ-6" target="ECa8pZ-hQYxJINhSoIsZ-5">
          <mxGeometry relative="1" as="geometry" />
        </mxCell>
        <mxCell id="ECa8pZ-hQYxJINhSoIsZ-6" value="数据组TDW" style="rounded=0;whiteSpace=wrap;html=1;" vertex="1" parent="WIyWlLk6GJQsqaUBKTNV-1">
          <mxGeometry x="220" y="40" width="200" height="50" as="geometry" />
        </mxCell>
        <mxCell id="ECa8pZ-hQYxJINhSoIsZ-17" style="edgeStyle=orthogonalEdgeStyle;curved=1;rounded=0;orthogonalLoop=1;jettySize=auto;html=1;exitX=0.5;exitY=1;exitDx=0;exitDy=0;entryX=0.5;entryY=0;entryDx=0;entryDy=0;" edge="1" parent="WIyWlLk6GJQsqaUBKTNV-1" source="ECa8pZ-hQYxJINhSoIsZ-11" target="ECa8pZ-hQYxJINhSoIsZ-1">
          <mxGeometry relative="1" as="geometry" />
        </mxCell>
        <mxCell id="ECa8pZ-hQYxJINhSoIsZ-18" value="写search_is_valid" style="edgeLabel;html=1;align=center;verticalAlign=middle;resizable=0;points=[];" vertex="1" connectable="0" parent="ECa8pZ-hQYxJINhSoIsZ-17">
          <mxGeometry x="-0.4" y="17" relative="1" as="geometry">
            <mxPoint x="-17" y="13" as="offset" />
          </mxGeometry>
        </mxCell>
        <mxCell id="ECa8pZ-hQYxJINhSoIsZ-24" value="封禁解封" style="edgeStyle=orthogonalEdgeStyle;rounded=0;orthogonalLoop=1;jettySize=auto;html=1;exitX=1;exitY=0.5;exitDx=0;exitDy=0;entryX=0;entryY=0.5;entryDx=0;entryDy=0;" edge="1" parent="WIyWlLk6GJQsqaUBKTNV-1" source="ECa8pZ-hQYxJINhSoIsZ-11" target="ECa8pZ-hQYxJINhSoIsZ-19">
          <mxGeometry relative="1" as="geometry" />
        </mxCell>
        <mxCell id="ECa8pZ-hQYxJINhSoIsZ-11" value="&lt;span style=&quot;font-family: &amp;#34;arial&amp;#34; ; font-size: 13.3333px ; text-align: left ; background-color: rgb(255 , 255 , 255)&quot;&gt;go_kd_account_shield_daemon&lt;/span&gt;&lt;span style=&quot;font-family: &amp;#34;arial&amp;#34; ; font-size: 13.3333px ; text-align: left ; background-color: rgb(255 , 255 , 255)&quot;&gt;&lt;br&gt;封禁解封定时任务服务&lt;br&gt;&lt;/span&gt;" style="rounded=0;whiteSpace=wrap;html=1;" vertex="1" parent="WIyWlLk6GJQsqaUBKTNV-1">
          <mxGeometry x="220" y="280" width="200" height="60" as="geometry" />
        </mxCell>
        <mxCell id="ECa8pZ-hQYxJINhSoIsZ-22" style="edgeStyle=orthogonalEdgeStyle;rounded=0;orthogonalLoop=1;jettySize=auto;html=1;exitX=0.5;exitY=1;exitDx=0;exitDy=0;entryX=1;entryY=0.5;entryDx=0;entryDy=0;" edge="1" parent="WIyWlLk6GJQsqaUBKTNV-1" source="ECa8pZ-hQYxJINhSoIsZ-19" target="ECa8pZ-hQYxJINhSoIsZ-1">
          <mxGeometry relative="1" as="geometry" />
        </mxCell>
        <mxCell id="ECa8pZ-hQYxJINhSoIsZ-23" value="写search_is_valid" style="edgeLabel;html=1;align=center;verticalAlign=middle;resizable=0;points=[];" vertex="1" connectable="0" parent="ECa8pZ-hQYxJINhSoIsZ-22">
          <mxGeometry x="0.358" y="-2" relative="1" as="geometry">
            <mxPoint as="offset" />
          </mxGeometry>
        </mxCell>
        <mxCell id="ECa8pZ-hQYxJINhSoIsZ-19" value="封禁解封服务" style="rounded=0;whiteSpace=wrap;html=1;" vertex="1" parent="WIyWlLk6GJQsqaUBKTNV-1">
          <mxGeometry x="494" y="280" width="180" height="60" as="geometry" />
        </mxCell>
        <mxCell id="ECa8pZ-hQYxJINhSoIsZ-34" style="edgeStyle=orthogonalEdgeStyle;rounded=0;orthogonalLoop=1;jettySize=auto;html=1;exitX=1;exitY=0.5;exitDx=0;exitDy=0;exitPerimeter=0;entryX=0;entryY=0.5;entryDx=0;entryDy=0;" edge="1" parent="WIyWlLk6GJQsqaUBKTNV-1" source="ECa8pZ-hQYxJINhSoIsZ-25" target="ECa8pZ-hQYxJINhSoIsZ-11">
          <mxGeometry relative="1" as="geometry" />
        </mxCell>
        <mxCell id="ECa8pZ-hQYxJINhSoIsZ-25" value="白名单DB" style="shape=cylinder3;whiteSpace=wrap;html=1;boundedLbl=1;backgroundOutline=1;size=15;" vertex="1" parent="WIyWlLk6GJQsqaUBKTNV-1">
          <mxGeometry x="80" y="275" width="80" height="70" as="geometry" />
        </mxCell>
        <mxCell id="ECa8pZ-hQYxJINhSoIsZ-28" value="下游使用判断条件：&lt;br&gt;1. search_is_valid=1 &amp;amp;&amp;amp; f_src = 1/7&lt;br&gt;2. search_whitelist = 1" style="text;html=1;strokeColor=none;fillColor=none;align=left;verticalAlign=middle;whiteSpace=wrap;rounded=0;" vertex="1" parent="WIyWlLk6GJQsqaUBKTNV-1">
          <mxGeometry x="370" y="570" width="200" height="85" as="geometry" />
        </mxCell>
        <mxCell id="ECa8pZ-hQYxJINhSoIsZ-30" style="edgeStyle=orthogonalEdgeStyle;rounded=0;orthogonalLoop=1;jettySize=auto;html=1;exitX=0.5;exitY=1;exitDx=0;exitDy=0;entryX=0.5;entryY=0;entryDx=0;entryDy=0;" edge="1" parent="WIyWlLk6GJQsqaUBKTNV-1" source="ECa8pZ-hQYxJINhSoIsZ-29" target="ECa8pZ-hQYxJINhSoIsZ-19">
          <mxGeometry relative="1" as="geometry" />
        </mxCell>
        <mxCell id="ECa8pZ-hQYxJINhSoIsZ-29" value="&lt;span style=&quot;font-family: &amp;#34;arial&amp;#34; ; font-size: 13.3333px ; text-align: left ; background-color: rgb(255 , 255 , 255)&quot;&gt;portal-account-svr&lt;br&gt;发文封禁解封服务&lt;br&gt;&lt;/span&gt;" style="rounded=0;whiteSpace=wrap;html=1;" vertex="1" parent="WIyWlLk6GJQsqaUBKTNV-1">
          <mxGeometry x="496" y="150" width="176" height="65" as="geometry" />
        </mxCell>
        <mxCell id="ECa8pZ-hQYxJINhSoIsZ-31" value="1.搜索封禁解封&lt;br&gt;2.发文封禁解封（同时会封禁搜索）&lt;br&gt;3.底层页封禁解封" style="text;html=1;strokeColor=none;fillColor=none;align=left;verticalAlign=middle;whiteSpace=wrap;rounded=0;" vertex="1" parent="WIyWlLk6GJQsqaUBKTNV-1">
          <mxGeometry x="600" y="330" width="200" height="85" as="geometry" />
        </mxCell>
        <mxCell id="ECa8pZ-hQYxJINhSoIsZ-33" value="操作" style="edgeStyle=orthogonalEdgeStyle;rounded=0;orthogonalLoop=1;jettySize=auto;html=1;exitX=0.5;exitY=1;exitDx=0;exitDy=0;entryX=0.5;entryY=0;entryDx=0;entryDy=0;entryPerimeter=0;" edge="1" parent="WIyWlLk6GJQsqaUBKTNV-1" source="ECa8pZ-hQYxJINhSoIsZ-32" target="ECa8pZ-hQYxJINhSoIsZ-25">
          <mxGeometry relative="1" as="geometry" />
        </mxCell>
        <mxCell id="ECa8pZ-hQYxJINhSoIsZ-32" value="server" style="rounded=0;whiteSpace=wrap;html=1;" vertex="1" parent="WIyWlLk6GJQsqaUBKTNV-1">
          <mxGeometry x="60" y="155" width="120" height="60" as="geometry" />
        </mxCell>
      </root>
    </mxGraphModel>
  </diagram>
</mxfile>
